<svg xmlns="http://www.w3.org/2000/svg" viewBox="0 0 295.28 295.28"><title>Choices</title><path d="M147.64,0A147.64,147.64,0,1,0,295.28,147.64,147.64,147.64,0,0,0,147.64,0Zm0,290.94a143.3,143.3,0,1,1,143.3-143.3A143.3,143.3,0,0,1,147.64,290.94Z"/><path d="M32.15,148.9c0-72.43,47.57-116.72,113.71-116.72a100.6,100.6,0,0,1,69.61,27.47L196.91,77.84c-13.15-12.36-29.78-20.25-51-20.25-48.35,0-80.06,34.67-80.06,90.63,0,56.64,31.71,92,80.06,92,23.2,0,41-8.93,56.85-24.72L221.27,233c-19.72,20.59-44.86,32.61-78.51,32.61C80.11,265.62,32.15,222.37,32.15,148.9Z"/></svg>