<svg xmlns="http://www.w3.org/2000/svg" viewBox="0 0 233.3 195.66"><defs><style>.a{fill:#999;}.a,.b{stroke:#000;stroke-miterlimit:10;}.b{fill:#fff;}</style></defs><title>folder</title><path class="a" d="M209.78,9.49V8.31A7.8,7.8,0,0,0,202,.5H107.89a7.8,7.8,0,0,0-7.8,7.81V9.49a7.81,7.81,0,0,1-7.81,7.81h-84A7.8,7.8,0,0,0,.5,25.1V178a7.81,7.81,0,0,0,7.81,7.81h216.5a7.81,7.81,0,0,0,7.81-7.81V25.1a7.81,7.81,0,0,0-7.81-7.8h-7.22A7.81,7.81,0,0,1,209.78,9.49Z"/><polygon class="b" points="0.68 195.16 0.68 26.64 232.8 26.64 232.8 146.55 232.8 195.16 171.39 195.16 0.68 195.16"/></svg>