<svg xmlns="http://www.w3.org/2000/svg" viewBox="0 0 295.28 295.28"><title>MySpace</title><path d="M147.64,0A147.64,147.64,0,1,0,295.28,147.64,147.64,147.64,0,0,0,147.64,0Zm0,290.94a143.3,143.3,0,1,1,143.3-143.3A143.3,143.3,0,0,1,147.64,290.94Z"/><path d="M64.41,233.67l17.71-20.54c17.71,17.35,41.79,28.68,68,28.68,31.87,0,50.29-15.23,50.29-36.48,0-24.79-18.06-31.87-41.44-41.79l-33.64-14.87c-23-9.21-49.94-25.5-49.94-59.86,0-35.42,31.87-61.63,76.15-61.63,29,0,54.54,11.69,71.54,28.69L207.49,75c-15.22-13.46-32.93-21.61-57-21.61-26.91,0-45,12.75-45,33.65,0,22.31,21.61,30.46,41.44,38.25l32.59,14.52c28.68,11.33,51.35,27.63,51.35,62,0,36.84-31.17,66.23-82.17,66.23C114.7,268,85.31,254.56,64.41,233.67Z"/></svg>