<svg xmlns="http://www.w3.org/2000/svg" viewBox="0 0 295.28 295.28"><title>WebManager</title><path d="M147.64,0A147.64,147.64,0,1,0,295.28,147.64,147.64,147.64,0,0,0,147.64,0Zm0,290.94a143.3,143.3,0,1,1,143.3-143.3A143.3,143.3,0,0,1,147.64,290.94Z"/><path d="M189.71,69.35c-1.65,14.82-2.2,23.6-3.29,41.43h-1.1C182,93,180.38,84.17,176.54,69.35l-17-66.94H137.58L120,69.35c-3.56,14.82-5.48,23.6-8.77,41.43h-.83c-.82-17.83-1.92-26.61-3.56-41.7l-7-59.78A116.11,116.11,0,0,0,78,22.17L95.33,136.29h28l17.55-72.42c2.75-11,4.39-21.4,6.31-32.38H148c1.64,11,3.84,21.4,6.58,32.38l17.56,72.42h28.53L217.32,22.44a116.18,116.18,0,0,0-21-12.54Z"/><path d="M105.57,227.34c1.65-14.81,2.2-23.59,3.3-41.43H110c3.29,17.84,4.94,26.62,8.78,41.43l17,66.94H157.7l17.56-66.94c3.56-14.81,5.48-23.59,8.78-41.43h.82c.82,17.84,1.92,26.62,3.57,41.71l7,59.78a117.19,117.19,0,0,0,21.93-12.87L200,160.4H172l-17.55,72.43c-2.75,11-4.39,21.4-6.31,32.37h-.83c-1.64-11-3.84-21.4-6.58-32.37L123.13,160.4H94.6L78,274.25A116.23,116.23,0,0,0,99,286.8Z"/></svg>